<svg width="33" height="32" viewBox="0 0 33 32" fill="none" xmlns="http://www.w3.org/2000/svg">
<g id="Detiles" clip-path="url(#clip0_0_1)">
<rect width="430" height="932" transform="translate(-370 -713)" fill="white"/>
<g id="Frame 613">
<g id="Frame 612">
<g id="iconoir:gym">
<g id="Group">
<path id="Vector" d="M10.3667 9.33301H6.63337C6.4212 9.33301 6.21772 9.41729 6.06769 9.56732C5.91766 9.71735 5.83337 9.92083 5.83337 10.133V21.8663C5.83337 21.9714 5.85407 22.0754 5.89427 22.1725C5.93447 22.2695 5.9934 22.3577 6.06769 22.432C6.14198 22.5063 6.23017 22.5652 6.32723 22.6054C6.42429 22.6456 6.52832 22.6663 6.63337 22.6663H10.3667C10.4718 22.6663 10.5758 22.6456 10.6729 22.6054C10.7699 22.5652 10.8581 22.5063 10.9324 22.432C11.0067 22.3577 11.0656 22.2695 11.1058 22.1725C11.146 22.0754 11.1667 21.9714 11.1667 21.8663V10.133C11.1667 9.92083 11.0824 9.71735 10.9324 9.56732C10.7824 9.41729 10.5789 9.33301 10.3667 9.33301ZM26.3667 9.33301H22.6334C22.4212 9.33301 22.2177 9.41729 22.0677 9.56732C21.9177 9.71735 21.8334 9.92083 21.8334 10.133V21.8663C21.8334 21.9714 21.8541 22.0754 21.8943 22.1725C21.9345 22.2695 21.9934 22.3577 22.0677 22.432C22.142 22.5063 22.2302 22.5652 22.3272 22.6054C22.4243 22.6456 22.5283 22.6663 22.6334 22.6663H26.3667C26.4718 22.6663 26.5758 22.6456 26.6729 22.6054C26.7699 22.5652 26.8581 22.5063 26.9324 22.432C27.0067 22.3577 27.0656 22.2695 27.1058 22.1725C27.146 22.0754 27.1667 21.9714 27.1667 21.8663V10.133C27.1667 9.92083 27.0824 9.71735 26.9324 9.56732C26.7824 9.41729 26.5789 9.33301 26.3667 9.33301Z" stroke="#238C98" stroke-width="1.5" stroke-linecap="round" stroke-linejoin="round"/>
<path id="Vector_2" d="M11.1667 16H21.8334M1.83337 19.2V12.8C1.83337 12.5878 1.91766 12.3843 2.06769 12.2343C2.21772 12.0843 2.4212 12 2.63337 12H5.03337C5.24555 12 5.44903 12.0843 5.59906 12.2343C5.74909 12.3843 5.83337 12.5878 5.83337 12.8V19.2C5.83337 19.4122 5.74909 19.6157 5.59906 19.7657C5.44903 19.9157 5.24555 20 5.03337 20H2.63337C2.4212 20 2.21772 19.9157 2.06769 19.7657C1.91766 19.6157 1.83337 19.4122 1.83337 19.2ZM31.1667 19.2V12.8C31.1667 12.5878 31.0824 12.3843 30.9324 12.2343C30.7824 12.0843 30.5789 12 30.3667 12H27.9667C27.7545 12 27.5511 12.0843 27.401 12.2343C27.251 12.3843 27.1667 12.5878 27.1667 12.8V19.2C27.1667 19.4122 27.251 19.6157 27.401 19.7657C27.5511 19.9157 27.7545 20 27.9667 20H30.3667C30.5789 20 30.7824 19.9157 30.9324 19.7657C31.0824 19.6157 31.1667 19.4122 31.1667 19.2Z" stroke="#238C98" stroke-width="1.5" stroke-linecap="round" stroke-linejoin="round"/>
</g>
<rect x="1" y="0.5" width="31" height="31" rx="4.5" stroke="#238C98" stroke-opacity="0.24"/>
</g>
</g>
</g>
</g>
<defs>
<clipPath id="clip0_0_1">
<rect width="430" height="932" fill="white" transform="translate(-370 -713)"/>
</clipPath>
</defs>
</svg>
