<svg width="33" height="32" viewBox="0 0 33 32" fill="none" xmlns="http://www.w3.org/2000/svg">
<g id="Detiles" clip-path="url(#clip0_0_1)">
<rect width="430" height="932" transform="translate(-295 -712)" fill="white"/>
<g id="Frame 613">
<g id="Frame 611">
<g id="material-symbols:pool-sharp">
<path id="Vector" d="M3.16663 28V25.3333C4.01107 25.3333 4.6444 25.1111 5.06663 24.6667C5.48885 24.2222 6.32218 24 7.56663 24C8.81107 24 9.66663 24.2222 10.1333 24.6667C10.6 25.1111 11.2333 25.3333 12.0333 25.3333C12.8333 25.3333 13.4666 25.1111 13.9333 24.6667C14.4 24.2222 15.2555 24 16.5 24C17.7444 24 18.6 24.2222 19.0666 24.6667C19.5333 25.1111 20.1666 25.3333 20.9666 25.3333C21.7666 25.3333 22.4 25.1111 22.8666 24.6667C23.3333 24.2222 24.1888 24 25.4333 24C26.6777 24 27.5111 24.2222 27.9333 24.6667C28.3555 25.1111 28.9888 25.3333 29.8333 25.3333V28C28.5222 28 27.6613 27.7778 27.2506 27.3333C26.84 26.8889 26.2342 26.6667 25.4333 26.6667C24.6333 26.6667 24 26.8889 23.5333 27.3333C23.0666 27.7778 22.2111 28 20.9666 28C19.7222 28 18.8666 27.7778 18.4 27.3333C17.9333 26.8889 17.3 26.6667 16.5 26.6667C15.7 26.6667 15.0666 26.8889 14.6 27.3333C14.1333 27.7778 13.2777 28 12.0333 28C10.7888 28 9.93329 27.7778 9.46663 27.3333C8.99996 26.8889 8.36663 26.6667 7.56663 26.6667C6.76663 26.6667 6.16085 26.8889 5.74929 27.3333C5.33774 27.7778 4.47685 28 3.16663 28ZM3.16663 22V19.3333C4.01107 19.3333 4.6444 19.1111 5.06663 18.6667C5.48885 18.2222 6.32218 18 7.56663 18C8.81107 18 9.6724 18.2222 10.1506 18.6667C10.6288 19.1111 11.2564 19.3333 12.0333 19.3333C12.8333 19.3333 13.4666 19.1111 13.9333 18.6667C14.4 18.2222 15.2555 18 16.5 18C17.7444 18 18.6 18.2222 19.0666 18.6667C19.5333 19.1111 20.1666 19.3333 20.9666 19.3333C21.7666 19.3333 22.4 19.1111 22.8666 18.6667C23.3333 18.2222 24.1888 18 25.4333 18C26.6777 18 27.5111 18.2222 27.9333 18.6667C28.3555 19.1111 28.9888 19.3333 29.8333 19.3333V22C28.5222 22 27.6613 21.7778 27.2506 21.3333C26.84 20.8889 26.2342 20.6667 25.4333 20.6667C24.6333 20.6667 24.0164 20.8889 23.5826 21.3333C23.1488 21.7778 22.2768 22 20.9666 22C19.7 22 18.8391 21.7778 18.384 21.3333C17.9288 20.8889 17.3008 20.6667 16.5 20.6667C15.6555 20.6667 15.0275 20.8889 14.616 21.3333C14.2044 21.7778 13.3435 22 12.0333 22C10.7222 22 9.84974 21.7778 9.41596 21.3333C8.98218 20.8889 8.36574 20.6667 7.56663 20.6667C6.76663 20.6667 6.16129 20.8889 5.75063 21.3333C5.33996 21.7778 4.47863 22 3.16663 22ZM22.7666 4C23.7 4 24.4888 4.328 25.1333 4.984C25.7777 5.64 26.1 6.42311 26.1 7.33333C26.1 8.26667 25.7777 9.05556 25.1333 9.7C24.4888 10.3444 23.7 10.6667 22.7666 10.6667C21.8333 10.6667 21.0444 10.3444 20.4 9.7C19.7555 9.05556 19.4333 8.26667 19.4333 7.33333C19.4333 6.42222 19.7555 5.63867 20.4 4.98267C21.0444 4.32667 21.8333 3.99911 22.7666 4ZM12.0333 16C11.5666 16 11.1555 15.9276 10.8 15.7827C10.4444 15.6378 10.0777 15.4436 9.69996 15.2L14.1333 10.7667L12.8 9.43333L7.43329 7.33333V4L14.7666 6.66667L23.3 15.2C22.9222 15.4444 22.5555 15.6391 22.2 15.784C21.8444 15.9289 21.4333 16.0009 20.9666 16C20.1666 16 19.5333 15.7778 19.0666 15.3333C18.6 14.8889 17.7444 14.6667 16.5 14.6667C15.2555 14.6667 14.4 14.8889 13.9333 15.3333C13.4666 15.7778 12.8333 16 12.0333 16Z" fill="#238C98"/>
<rect x="1" y="0.5" width="31" height="31" rx="4.5" stroke="#238C98" stroke-opacity="0.24"/>
</g>
</g>
</g>
</g>
<defs>
<clipPath id="clip0_0_1">
<rect width="430" height="932" fill="white" transform="translate(-295 -712)"/>
</clipPath>
</defs>
</svg>
