<svg width="32" height="32" viewBox="0 0 32 32" fill="none" xmlns="http://www.w3.org/2000/svg">
<g id="Detiles" clip-path="url(#clip0_0_1)">
<rect width="430" height="932" transform="translate(-124 -712)" fill="white"/>
<g id="Frame 613">
<g id="Frame 609">
<g id="ri:restaurant-2-line">
<path id="Vector" d="M19.0239 16.1963L17.8866 17.3336L27.3133 26.7616L25.4293 28.6469L15.9999 19.2203L6.57061 28.6469L4.68528 26.7616L17.1373 14.3096C16.3533 12.3669 17.1639 9.56958 19.2986 7.43492C21.9026 4.83092 25.4906 4.19758 27.3119 6.02025C29.1359 7.84292 28.5026 11.4309 25.8986 14.0336C23.7626 16.1696 20.9666 16.9803 19.0239 16.1963ZM5.62928 5.07625L14.5866 14.0336L10.8146 17.8056L5.62928 12.6189C4.62943 11.6188 4.06775 10.2625 4.06775 8.84825C4.06775 7.43404 4.62943 6.07773 5.62928 5.07758V5.07625ZM24.0146 12.1483C25.6906 10.4723 26.0359 8.51358 25.4279 7.90558C24.8213 7.29758 22.8626 7.64425 21.1866 9.31892C19.5093 10.9963 19.1639 12.9549 19.7719 13.5629C20.3799 14.1696 22.3386 13.8243 24.0146 12.1496V12.1483Z" fill="#238C98"/>
<rect x="0.5" y="0.5" width="31" height="31" rx="4.5" stroke="#238C98" stroke-opacity="0.24"/>
</g>
</g>
</g>
</g>
<defs>
<clipPath id="clip0_0_1">
<rect width="430" height="932" fill="white" transform="translate(-124 -712)"/>
</clipPath>
</defs>
</svg>
