<svg width="33" height="32" viewBox="0 0 33 32" fill="none" xmlns="http://www.w3.org/2000/svg">
<g id="Detiles" clip-path="url(#clip0_0_1)">
<rect width="430" height="932" transform="translate(-27 -712)" fill="white"/>
<g id="Frame 613">
<g id="Frame 608">
<g id="material-symbols:wifi">
<g clip-path="url(#clip1_0_1)">
<path id="Vector" d="M8.96667 20.4663L6.16667 17.5997C7.47778 16.2886 9.01689 15.2499 10.784 14.4837C12.5511 13.7175 14.4564 13.3339 16.5 13.333C18.5444 13.333 20.4502 13.7219 22.2173 14.4997C23.9844 15.2775 25.5231 16.333 26.8333 17.6663L24.0333 20.4663C23.0556 19.4886 21.9222 18.7219 20.6333 18.1663C19.3444 17.6108 17.9667 17.333 16.5 17.333C15.0333 17.333 13.6556 17.6108 12.3667 18.1663C11.0778 18.7219 9.94444 19.4886 8.96667 20.4663ZM3.3 14.7997L0.5 11.9997C2.54444 9.91079 4.93333 8.27745 7.66667 7.09967C10.4 5.9219 13.3444 5.33301 16.5 5.33301C19.6556 5.33301 22.6 5.9219 25.3333 7.09967C28.0667 8.27745 30.4556 9.91079 32.5 11.9997L29.7 14.7997C27.9889 13.0886 26.0053 11.7495 23.7493 10.7823C21.4933 9.81523 19.0769 9.33212 16.5 9.33301C13.9222 9.33301 11.5053 9.81656 9.24933 10.7837C6.99333 11.7508 5.01022 13.0895 3.3 14.7997ZM16.5 27.9997L21.2 23.2663C20.6 22.6663 19.9 22.1939 19.1 21.849C18.3 21.5041 17.4333 21.3321 16.5 21.333C15.5667 21.333 14.7 21.5055 13.9 21.8503C13.1 22.1952 12.4 22.6672 11.8 23.2663L16.5 27.9997Z" fill="#238C98"/>
</g>
<rect x="1" y="0.5" width="31" height="31" rx="4.5" stroke="#238C98" stroke-opacity="0.24"/>
</g>
</g>
</g>
</g>
<defs>
<clipPath id="clip0_0_1">
<rect width="430" height="932" fill="white" transform="translate(-27 -712)"/>
</clipPath>
<clipPath id="clip1_0_1">
<rect x="0.5" width="32" height="32" rx="5" fill="white"/>
</clipPath>
</defs>
</svg>
