<svg width="33" height="32" viewBox="0 0 33 32" fill="none" xmlns="http://www.w3.org/2000/svg">
<g id="Detiles" clip-path="url(#clip0_0_1)">
<rect width="430" height="932" transform="translate(-220 -712)" fill="white"/>
<g id="Frame 613">
<g id="Frame 610">
<g id="guidance:bar">
<path id="Vector" d="M13.8333 25.3337V31.3337M13.8333 25.3337C13.8333 20.0003 18.056 12.259 23.2507 7.92966L25.1667 6.33366V6.00033H18.536M13.8333 25.3337C13.8333 20.0003 9.61067 12.259 4.416 7.92966L2.5 6.33366V6.00033H18.536M13.8333 31.3337H7.16667M13.8333 31.3337H20.5M18.536 6.00033C18.6647 4.84929 19.1238 3.7601 19.8578 2.86423C20.5919 1.96836 21.5696 1.30409 22.6728 0.951604C23.7761 0.59912 24.9578 0.573488 26.0753 0.8778C27.1928 1.18211 28.1984 1.80336 28.9706 2.66656C29.7428 3.52976 30.2487 4.59802 30.4272 5.74239C30.6057 6.88676 30.4491 8.05833 29.9764 9.11569C29.5037 10.1731 28.7351 11.071 27.7634 11.7012C26.7916 12.3313 25.6582 12.6668 24.5 12.667M7.83333 11.3337H19.8333" stroke="#238C98"/>
<rect x="1" y="0.5" width="31" height="31" rx="4.5" stroke="#238C98" stroke-opacity="0.24"/>
</g>
</g>
</g>
</g>
<defs>
<clipPath id="clip0_0_1">
<rect width="430" height="932" fill="white" transform="translate(-220 -712)"/>
</clipPath>
</defs>
</svg>
